# xmcd CD database file generated by Grip 3.0.5
# 
# Track frame offsets:
#       182
#       19805
#       32210
#       43830
#       64935
#       80755
#       102995
#       123837
#       139427
#       155285
# 
# Disc length: 2262 seconds
# 
# Revision: 1
# Processed by: cddbd v1.4PL0 Copyright (c) Steve Scherf et al.
# Submitted via: Grip 3.0.5
# 
DISCID=8a08d40a
DTITLE=ted hawkins - the next hundred years
DYEAR=1994
DGENRE=Blues
TTITLE0=Strange Conversation
TTITLE1=Big Things
TTITLE2=There Stands The Glass
TTITLE3=Biloxi
TTITLE4=Groovy Little Things
TTITLE5=The Good And The Bad
TTITLE6=Afraid
TTITLE7=Green-Eyed Girl
TTITLE8=Ladder Of Success
TTITLE9=Long As I Can See The Light
EXTD=Geffen -1994
EXTT0=
EXTT1=
EXTT2=
EXTT3=
EXTT4=
EXTT5=
EXTT6=
EXTT7=
EXTT8=
EXTT9=
PLAYORDER=
